<?xml version="1.0" encoding="UTF-8"?>
<svg id="Capa_2" data-name="Capa 2" xmlns="http://www.w3.org/2000/svg" viewBox="0 0 12.77 15.19">
  <g id="Capa_1-2" data-name="Capa 1">
    <path fill="#3AA4DD" d="m6.47,15.19h-.18c-.54-.23-1.09-.43-1.62-.69-1.86-.93-3.22-2.33-3.96-4.29C.21,8.88.03,7.49,0,6.08c-.02-1.09,0-2.17.02-3.26,0-.41.2-.6.62-.62.45-.02.9-.04,1.34-.1,1.08-.14,2.08-.49,2.98-1.12.35-.25.68-.54,1.01-.82.26-.21.54-.22.79,0,.07.06.15.13.22.2.76.69,1.62,1.18,2.6,1.48.82.25,1.66.35,2.51.35.43,0,.62.21.62.63,0,.82.03,1.63.03,2.45,0,1.17-.07,2.34-.31,3.49-.55,2.64-2.02,4.57-4.44,5.76-.5.25-1.03.44-1.55.65Zm2.09-9.95c-.98.94-1.96,1.86-2.94,2.8-.45-.5-.89-.98-1.33-1.47-.28.24-.54.48-.81.72.03.04.06.07.09.11.52.57,1.03,1.15,1.55,1.72.28.31.59.31.89.03,1.07-1,2.13-2,3.2-3.01.03-.03.06-.06.09-.1-.25-.27-.49-.53-.74-.79Z"/>
  </g>
</svg>