<?xml version="1.0" encoding="UTF-8"?>
<svg id="Capa_2" data-name="Capa 2" xmlns="http://www.w3.org/2000/svg" viewBox="0 0 12.06 13.56">
  <defs>
    <style>
      .cls-1 {
        fill: #fff;
      }
    </style>
  </defs>
  <g id="Capa_1-2" data-name="Capa 1">
    <g id="pEz7zo">
      <path class="cls-1" d="m10.79,9.02c-.22.02-.43.02-.64-.04-.64-.18-1.09-.75-1.1-1.42,0-.53-.01-1.05,0-1.58.02-.86.73-1.51,1.59-1.47.09,0,.18.03.27.05.06.01.13.03.21.05-.2-.78-.57-1.45-1.09-2.04-.94-1.07-2.11-1.69-3.53-1.8C3.38.52,1.39,2.79.96,4.61c.12-.02.23-.05.35-.07.78-.13,1.6.48,1.69,1.27.01.12.02.25.02.38,0,.44,0,.88,0,1.33,0,.78-.52,1.39-1.29,1.52-.79.13-1.59-.46-1.7-1.26-.01-.07-.02-.15-.02-.23,0-.57-.01-1.13,0-1.7.06-1.76.76-3.23,2.1-4.39C2.89.78,3.78.33,4.79.13c.28-.06.56-.09.84-.11,1.36-.09,2.61.24,3.74.99,1.38.93,2.23,2.22,2.58,3.84.08.38.11.78.11,1.17,0,.49,0,.97,0,1.46,0,.25-.06.49-.15.72-.07.18-.11.37-.18.55-.7,1.9-2,3.16-3.92,3.79-.31.1-.63.15-.95.21-.08.02-.13.04-.17.13-.2.46-.66.74-1.14.69-.51-.05-.91-.42-1.01-.92-.1-.53.2-1.06.71-1.26.51-.2,1.09,0,1.37.47.1.17.1.17.3.14,1.07-.2,2.02-.65,2.8-1.43.43-.43.77-.92,1.05-1.46,0-.01.01-.03.02-.04,0,0,0,0,0-.02Zm-.99-2.25s0,0,0,0c0,.25,0,.51,0,.76,0,.41.33.74.74.75.42,0,.76-.31.77-.73,0-.52,0-1.04,0-1.56,0-.31-.22-.58-.51-.68-.47-.16-.97.17-.99.68-.01.26,0,.53,0,.79Zm-9.04,0h0c0,.25,0,.5,0,.75,0,.32.16.55.45.69.47.22,1.03-.12,1.05-.65.01-.3,0-.6,0-.9,0-.23,0-.46,0-.69-.03-.48-.48-.81-.95-.69-.33.09-.55.38-.55.74,0,.25,0,.49,0,.74Z"/>
    </g>
  </g>
</svg>