<?xml version="1.0" encoding="UTF-8"?>
<svg id="Capa_2" data-name="Capa 2" xmlns="http://www.w3.org/2000/svg" viewBox="0 0 14.28 14.28">
  <g id="Capa_1-2" data-name="Capa 1">
    <path fill="#2072B6" d="m7.14,0C3.2,0,0,3.2,0,7.14s3.2,7.14,7.14,7.14,7.14-3.2,7.14-7.14S11.08,0,7.14,0Zm.76,10.2v.62c0,.42-.34.76-.76.76s-.76-.34-.76-.76v-.54h-.63c-.42,0-.76-.34-.76-.76s.34-.76.76-.76h1.75c.34,0,.59-.2.59-.39s-.25-.39-.59-.39h-.72c-1.17,0-2.12-.89-2.12-1.98,0-.96.75-1.72,1.71-1.9v-.59c0-.42.34-.76.76-.76s.76.34.76.76v.51h.27c.42,0,.76.34.76.76s-.34.76-.76.76h-1.39c-.32,0-.59.21-.59.45s.28.45.59.45h.72c1.17,0,2.12.86,2.12,1.92,0,.93-.74,1.66-1.71,1.84Z"/>
  </g>
</svg>